<svg width="40" height="32" viewBox="0 0 40 32" fill="none" xmlns="http://www.w3.org/2000/svg">
<path d="M35.2723 0.998257C35.2712 0.72318 35.0456 0.501054 34.7684 0.502124L30.2512 0.519565C29.974 0.520635 29.7501 0.744496 29.7512 1.01957C29.7523 1.29465 29.9778 1.51678 30.255 1.51571L34.2704 1.5002L34.2857 5.48477C34.2868 5.75984 34.5124 5.98197 34.7896 5.9809C35.0668 5.97983 35.2906 5.75597 35.2896 5.48089L35.2723 0.998257ZM21.661 14.8171L35.1266 1.35101L34.4141 0.649376L20.9484 14.1155L21.661 14.8171Z" fill="white"/>
<path d="M4.77161 31.4984C4.49441 31.4994 4.26884 31.2773 4.26778 31.0022L4.25047 26.5196C4.24941 26.2445 4.47326 26.0207 4.75046 26.0196C5.02766 26.0185 5.25324 26.2406 5.2543 26.5157L5.26968 30.5003L9.285 30.4848C9.5622 30.4837 9.78778 30.7058 9.78884 30.9809C9.7899 31.256 9.56605 31.4799 9.28885 31.4809L4.77161 31.4984ZM18.5916 17.885L5.12596 31.3511L4.41342 30.6495L17.8791 17.1834L18.5916 17.885Z" fill="white"/>
</svg>
